<svg width="500" height="500" viewBox="0 0 500 500" fill="none" xmlns="http://www.w3.org/2000/svg">
<path d="M29.6709 0.0148974C176.561 0.00199587 323.439 -0.0109056 470.33 0.0148974C462.245 91.4221 454.289 182.829 445.869 274.211C440.866 332.616 435.709 391.021 430.267 449.387C398.922 457.696 367.885 467.166 336.552 475.513C307.773 483.963 278.761 491.614 249.968 500H249.117C221.717 491.846 194.046 484.673 166.646 476.519C134.307 467.798 102.252 458.07 69.9008 449.387C65.6844 405.638 61.8806 361.864 58.1284 318.089C51.0495 237.209 43.3516 156.381 36.5435 75.4887C34.1839 51.1436 32.4947 26.721 29.6709 2.42748V0.0148974ZM250.69 36.0746C250.381 53.6336 250.922 71.2054 250.381 88.7515C199.99 88.5709 149.587 88.7128 99.1963 88.7644C100.06 105.807 102.343 122.734 104.689 139.635C151.573 141.377 198.52 139.571 245.403 140.977C204.387 159.387 162.868 176.727 121.671 194.75C118.138 196.324 114.36 197.511 111.201 199.808C111.549 218.528 114.566 237.145 115.894 255.826C140.883 255.736 165.859 255.336 190.848 255.297C210.873 255.194 230.91 255.594 250.935 255.155C249.981 285.938 251.232 316.76 250.29 347.543C236.816 345.543 223.509 342.537 210.086 340.15C199.5 337.841 188.656 336.641 178.225 333.609C176.742 318.837 175.71 304.013 174.395 289.228C171.378 288.299 168.18 288.389 165.06 288.338C149.922 288.428 134.771 288.286 119.621 288.518C121.104 316.94 123.657 345.324 128.002 373.475C142.933 377.371 157.891 381.19 172.796 385.254C195.632 391.473 218.751 396.646 241.625 402.761C244.346 403.342 247.093 404.348 249.916 404.116C251.438 422.81 250.265 441.621 250.548 460.367C255.822 459.515 261.005 458.212 266.099 456.638C309.397 444.872 352.644 432.886 395.917 421.004C398.071 403.974 399.076 386.828 400.778 369.759C405.278 317.869 409.817 265.98 414.536 214.103C420.068 154.756 424.852 95.3442 430.422 35.9972C370.503 36.0488 310.596 35.8811 250.69 36.0746Z" fill="#0170BA"/>
<path d="M250.833 36.075C310.773 35.8815 370.714 36.0492 430.667 35.9976C425.093 95.3446 420.307 154.756 414.772 214.103C410.05 265.98 405.509 317.87 401.006 369.76C399.303 386.828 398.297 403.974 396.142 421.004C352.845 432.887 309.573 444.872 266.25 456.638C261.154 458.212 255.967 459.515 250.691 460.367C250.407 441.621 251.581 422.811 250.059 404.116C250.446 404.039 251.233 403.884 251.62 403.807C291.911 393.692 331.932 382.558 372.133 372.082C377.216 315.057 382.854 258.058 386.428 200.918C352.239 201.098 318.037 200.995 283.848 201.137C278.868 201.163 273.888 201.137 268.934 200.776C287.331 191.306 306.683 183.797 325.571 175.347C343.698 167.129 362.044 159.426 380.235 151.363C383.744 149.75 387.485 148.408 390.569 146.009C391.782 141.558 391.717 136.9 392.195 132.346C393.24 117.896 395.097 103.524 395.794 89.0615C347.375 88.6745 298.955 89.0099 250.523 88.7519C251.065 71.2058 250.523 53.634 250.833 36.075Z" fill="#29A9DF"/>
<path d="M251.078 255.155C274.455 254.755 297.846 255.388 321.236 255.233C319.933 279.139 317.946 303.007 316.708 326.914C302.374 331.597 287.821 335.558 273.372 339.892C265.669 342.241 257.761 344.098 250.433 347.543C251.374 316.76 250.123 285.938 251.078 255.155Z" fill="#29A9DF"/>
<path d="M99.2529 88.764C149.672 88.7123 200.104 88.5704 250.523 88.7511C251.181 144.228 250.355 199.704 251.078 255.155C231.042 255.593 210.993 255.193 190.957 255.297C165.954 255.335 140.964 255.735 115.96 255.826C114.632 237.144 111.613 218.527 111.264 199.807C114.425 197.511 118.205 196.324 121.74 194.75C162.961 176.726 204.503 159.387 245.543 140.976C198.633 139.57 151.659 141.376 104.749 139.635C102.401 122.734 100.117 105.807 99.2529 88.764Z" fill="#CFCFCF"/>
<path d="M119.689 288.518C134.848 288.285 150.008 288.427 165.154 288.337C168.276 288.389 171.476 288.298 174.495 289.227C175.811 304.012 176.843 318.836 178.326 333.608C188.764 336.64 199.614 337.84 210.206 340.149C223.637 342.536 236.951 345.542 250.433 347.542C251.723 366.275 249.465 385.137 251.62 403.805C251.233 403.883 250.446 404.038 250.059 404.115C247.233 404.347 244.485 403.341 241.763 402.76C218.876 396.645 195.743 391.472 172.895 385.253C157.981 381.189 143.015 377.37 128.075 373.474C123.727 345.323 121.173 316.94 119.689 288.518Z" fill="#CFCFCF"/>
<path d="M250.524 88.7515C298.956 89.0095 347.375 88.674 395.795 89.0611C395.098 103.524 393.24 117.896 392.195 132.346C391.718 136.9 391.782 141.557 390.57 146.008C387.486 148.408 383.745 149.75 380.236 151.362C362.044 159.426 343.698 167.128 325.572 175.346C306.684 183.797 287.332 191.306 268.934 200.775C273.888 201.137 278.868 201.162 283.848 201.137C318.037 200.995 352.239 201.098 386.428 200.917C382.855 258.058 377.217 315.057 372.133 372.082C331.932 382.558 291.912 393.692 251.62 403.806C249.466 385.138 251.724 366.276 250.433 347.543C257.762 344.098 265.67 342.24 273.372 339.892C287.822 335.557 302.375 331.597 316.709 326.913C317.947 303.007 319.934 279.139 321.237 255.233C297.847 255.387 274.456 254.755 251.079 255.155C250.356 199.704 251.182 144.228 250.524 88.7515Z" fill="white"/>
</svg>
