<svg width="500" height="500" viewBox="0 0 500 500" fill="none" xmlns="http://www.w3.org/2000/svg">
<g clip-path="url(#clip0_163_608)">
<path d="M432.063 201.221C429.444 182.2 418.965 165.686 400.059 150.765L389.125 143.362L381.836 154.41C372.496 168.647 367.826 188.465 369.307 207.485C369.99 214.091 372.154 226.164 378.874 236.528C372.154 240.287 358.829 245.298 341.061 244.957H1.65334L0.969966 248.943C-2.2191 267.964 -2.2191 327.531 35.9358 373.203C64.9791 407.941 108.373 425.595 165.093 425.595C288.1 425.595 378.988 368.305 421.699 263.977C438.441 264.319 474.546 264.091 493.111 228.214C493.567 227.417 494.706 225.253 497.895 218.419L499.717 214.661L489.353 207.599C477.963 200.196 452.109 197.349 432.063 201.221ZM273.066 74H221.471V121.494H273.066V74ZM273.066 131.062H221.471V178.556H273.066V131.062ZM212.018 131.062H160.423V178.556H212.018V131.062ZM151.084 131.062H99.4893V178.556H151.084V131.062ZM90.036 188.123H38.4415V235.617H90.036V188.123ZM151.084 188.123H99.4893V235.617H151.084V188.123ZM212.018 188.123H160.423V235.617H212.018V188.123ZM273.066 188.123H221.471V235.617H273.066V188.123ZM334.113 188.123H282.519V235.617H334.113V188.123Z" fill="#1D63ED"/>
</g>
<defs>
<clipPath id="clip0_163_608">
<rect width="500" height="500" fill="white"/>
</clipPath>
</defs>
</svg>
