<svg width="500" height="500" viewBox="0 0 500 500" fill="none" xmlns="http://www.w3.org/2000/svg">
<path d="M166.333 500C212.333 500 249.667 462.666 249.667 416.666V333.333H166.333C120.333 333.333 83 370.666 83 416.666C83 462.666 120.333 500 166.333 500Z" fill="#0ACF83"/>
<path d="M83 250C83 204 120.333 166.667 166.333 166.667H249.667V333.333H166.333C120.333 333.333 83 296 83 250Z" fill="#A259FF"/>
<path d="M83 83.3333C83 37.3333 120.333 0 166.333 0H249.667V166.667H166.333C120.333 166.667 83 129.333 83 83.3333Z" fill="#F24E1E"/>
<path d="M249.667 0H333C379 0 416.333 37.3333 416.333 83.3333C416.333 129.333 379 166.667 333 166.667H249.667V0Z" fill="#FF7262"/>
<path d="M416.333 250C416.333 296 379 333.333 333 333.333C287 333.333 249.667 296 249.667 250C249.667 204 287 166.667 333 166.667C379 166.667 416.333 204 416.333 250Z" fill="#1ABCFE"/>
</svg>
