<svg width="500" height="500" viewBox="0 0 500 500" fill="none" xmlns="http://www.w3.org/2000/svg">
<g clip-path="url(#clip0_358_20195)">
<path d="M317.272 165.873H332.522L375.985 123.745L378.12 105.859C353.222 84.5571 323.132 69.7597 290.694 62.8642C258.255 55.9688 224.539 57.2028 192.729 66.4498C160.919 75.6969 132.067 92.6516 108.897 115.712C85.7269 138.773 69.0044 167.179 60.3091 198.246C65.151 196.322 70.5146 196.01 75.5591 197.359L162.484 183.464C162.484 183.464 166.907 176.368 169.194 176.812C187.82 156.984 213.559 144.807 241.144 142.774C268.729 140.74 296.073 149.004 317.577 165.873H317.272Z" fill="#EA4335"/>
<path d="M437.9 198.246C427.91 162.586 407.399 130.529 378.883 106.006L317.883 165.134C330.596 175.203 340.784 187.939 347.679 202.381C354.574 216.823 357.995 232.594 357.685 248.504V258.999C364.815 258.999 371.874 260.361 378.461 263.005C385.048 265.65 391.033 269.526 396.074 274.413C401.115 279.299 405.114 285.1 407.843 291.485C410.571 297.87 411.975 304.713 411.975 311.623C411.975 318.534 410.571 325.377 407.843 331.761C405.114 338.146 401.115 343.947 396.074 348.834C391.033 353.72 385.048 357.597 378.461 360.241C371.874 362.886 364.815 364.247 357.685 364.247H249.105L238.277 374.89V438.009L249.105 448.504H357.685C388.006 448.733 417.597 439.496 442.082 422.159C466.567 404.823 484.645 380.307 493.641 352.24C502.638 324.173 502.075 294.044 492.036 266.31C481.998 238.577 463.017 214.712 437.9 198.246Z" fill="#4285F4"/>
<path d="M140.372 447.913H248.952V363.656H140.372C132.636 363.654 124.991 362.041 117.954 358.926L102.704 363.508L58.9365 405.637L55.124 420.419C79.6679 438.383 109.617 448.042 140.372 447.913Z" fill="#34A853"/>
<path d="M140.372 174.595C110.952 174.765 82.3213 183.838 58.479 200.546C34.6368 217.254 16.7736 240.763 7.3844 267.79C-2.00483 294.816 -2.45118 324.01 6.10768 351.294C14.6665 378.578 31.8032 402.59 55.1241 419.975L118.107 358.926C110.103 355.421 103.096 350.086 97.687 343.379C92.278 336.672 88.6285 328.793 87.0516 320.418C85.4747 312.043 86.0175 303.423 88.6334 295.296C91.2493 287.169 95.8602 279.779 102.071 273.759C108.281 267.739 115.905 263.27 124.289 260.734C132.673 258.199 141.567 257.672 150.207 259.201C158.847 260.729 166.976 264.267 173.895 269.51C180.815 274.753 186.318 281.545 189.935 289.303L252.917 228.254C239.698 211.502 222.66 197.942 203.135 188.633C183.611 179.324 162.13 174.52 140.372 174.595Z" fill="#FBBC05"/>
</g>
<defs>
<clipPath id="clip0_358_20195">
<rect width="500" height="500" fill="white"/>
</clipPath>
</defs>
</svg>
