<svg width="500" height="500" viewBox="0 0 500 500" fill="none" xmlns="http://www.w3.org/2000/svg">
<path d="M346.106 58.5207V426.365C346.106 467.556 374.564 490.46 404.767 490.46C432.701 490.46 463.428 470.953 463.428 426.365V61.3074C463.428 23.5998 435.494 0 404.767 0C374.04 0 346.106 26.0382 346.106 58.5207Z" fill="#F8AB00"/>
<path d="M192.471 245.23V426.365C192.471 467.556 220.928 490.459 251.131 490.459C279.065 490.459 309.792 470.952 309.792 426.365V248.016C309.792 210.309 281.859 186.709 251.131 186.709C220.404 186.709 192.471 212.747 192.471 245.23Z" fill="#E37300"/>
<path d="M156.157 431.939C156.157 464.247 129.882 490.459 97.4959 490.459C65.1101 490.459 38.835 464.247 38.835 431.939C38.835 399.63 65.1101 373.418 97.4959 373.418C129.882 373.418 156.157 399.63 156.157 431.939Z" fill="#E37300"/>
</svg>
