<svg width="500" height="500" viewBox="0 0 500 500" fill="none" xmlns="http://www.w3.org/2000/svg">
<g clip-path="url(#clip0_161_445)">
<path d="M500 0H0V500H500V0Z" fill="#F7DF1E"/>
<path d="M335.873 390.627C345.944 407.072 359.048 419.159 382.222 419.159C401.69 419.159 414.127 409.429 414.127 395.984C414.127 379.873 401.349 374.167 379.921 364.794L368.175 359.754C334.27 345.31 311.746 327.214 311.746 288.96C311.746 253.722 338.595 226.897 380.556 226.897C410.429 226.897 431.905 237.294 447.381 264.516L410.794 288.008C402.738 273.564 394.048 267.873 380.556 267.873C366.794 267.873 358.071 276.603 358.071 288.008C358.071 302.103 366.802 307.81 386.96 316.54L398.706 321.572C438.627 338.691 461.167 356.143 461.167 395.381C461.167 437.683 427.936 460.857 383.309 460.857C339.675 460.857 311.484 440.064 297.69 412.81L335.873 390.627ZM169.897 394.699C177.278 407.794 183.992 418.865 200.135 418.865C215.571 418.865 225.309 412.826 225.309 389.341V229.579H272.294V389.976C272.294 438.627 243.77 460.77 202.135 460.77C164.516 460.77 142.73 441.302 131.651 417.853L169.897 394.699Z" fill="black"/>
</g>
<defs>
<clipPath id="clip0_161_445">
<rect width="500" height="500" fill="white"/>
</clipPath>
</defs>
</svg>
