<svg width="500" height="500" viewBox="0 0 500 500" fill="none" xmlns="http://www.w3.org/2000/svg">
<path d="M248.267 7.04276C243.847 7.26543 239.516 8.36136 235.528 10.2663L61.7037 93.3215C57.2048 95.4701 53.2517 98.5963 50.1381 102.468C47.0245 106.34 44.8304 110.858 43.7188 115.686L0.83511 302.249C-0.155138 306.547 -0.26596 310.999 0.509202 315.341C1.28436 319.682 2.92976 323.826 5.34801 327.526C5.93438 328.43 6.56502 329.306 7.23765 330.149L127.552 479.742C130.666 483.612 134.62 486.738 139.119 488.885C143.618 491.033 148.547 492.148 153.54 492.147L346.484 492.102C351.475 492.106 356.403 490.995 360.902 488.851C365.401 486.707 369.355 483.586 372.472 479.719L492.742 330.104C495.858 326.232 498.053 321.712 499.166 316.882C500.278 312.052 500.278 307.035 499.166 302.204L456.216 115.641C455.104 110.813 452.91 106.295 449.797 102.424C446.683 98.5519 442.73 95.4256 438.231 93.277L264.384 10.2663C259.369 7.87005 253.827 6.76164 248.267 7.04276Z" fill="#326CE5"/>
<path d="M249.989 70.5327C244.244 70.5333 239.585 75.7088 239.585 82.0929C239.585 82.1908 239.605 82.2845 239.607 82.3819C239.599 83.2493 239.557 84.2943 239.585 85.0496C239.722 88.7318 240.525 91.5499 241.008 94.9424C241.883 102.203 242.617 108.222 242.164 113.817C241.724 115.926 240.17 117.855 238.785 119.196L238.54 123.598C232.297 124.116 226.011 125.063 219.733 126.488C192.718 132.622 169.459 146.538 151.75 165.326C150.601 164.542 148.591 163.1 147.993 162.658C146.136 162.909 144.258 163.482 141.813 162.058C137.157 158.924 132.917 154.598 127.785 149.386C125.434 146.893 123.732 144.52 120.938 142.117C120.304 141.571 119.336 140.833 118.626 140.272C116.442 138.53 113.866 137.622 111.379 137.537C108.18 137.428 105.101 138.678 103.087 141.205C99.5046 145.698 100.651 152.565 105.643 156.545C105.694 156.585 105.748 156.616 105.799 156.656C106.485 157.212 107.325 157.924 107.955 158.39C110.919 160.578 113.627 161.699 116.581 163.436C122.803 167.279 127.962 170.465 132.054 174.307C133.651 176.01 133.931 179.012 134.143 180.31L137.478 183.289C119.627 210.153 111.365 243.337 116.247 277.148L111.89 278.415C110.742 279.898 109.119 282.232 107.422 282.928C102.068 284.614 96.0435 285.234 88.7698 285.996C85.3549 286.28 82.4084 286.111 78.7881 286.796C77.9913 286.947 76.881 287.237 76.0092 287.441C75.9789 287.448 75.9506 287.456 75.9203 287.463C75.8727 287.474 75.8103 287.497 75.7646 287.508C69.6323 288.989 65.6929 294.626 66.9611 300.179C68.2297 305.734 74.2196 309.112 80.3887 307.782C80.4332 307.772 80.4979 307.771 80.5443 307.76C80.614 307.744 80.6753 307.711 80.7444 307.694C81.6044 307.505 82.6821 307.295 83.4344 307.093C86.9937 306.14 89.5715 304.74 92.7714 303.514C99.6555 301.045 105.357 298.982 110.912 298.179C113.232 297.997 115.676 299.61 116.892 300.291L121.427 299.513C131.863 331.869 153.735 358.021 181.429 374.431L179.539 378.966C180.22 380.727 180.972 383.11 180.464 384.849C178.445 390.086 174.986 395.613 171.047 401.775C169.14 404.622 167.188 406.832 165.467 410.09C165.055 410.869 164.531 412.067 164.133 412.891C161.459 418.612 163.421 425.202 168.557 427.675C173.726 430.163 180.142 427.539 182.918 421.806C182.923 421.798 182.937 421.792 182.941 421.783C182.943 421.777 182.938 421.767 182.941 421.761C183.336 420.948 183.896 419.88 184.23 419.116C185.704 415.739 186.195 412.845 187.231 409.579C189.984 402.664 191.496 395.408 195.286 390.887C196.324 389.649 198.015 389.173 199.769 388.704L202.126 384.435C226.269 393.702 253.294 396.189 280.29 390.06C286.449 388.661 292.394 386.852 298.142 384.68C298.804 385.855 300.035 388.113 300.365 388.681C302.147 389.261 304.093 389.561 305.678 391.905C308.513 396.749 310.452 402.479 312.814 409.401C313.851 412.667 314.363 415.561 315.838 418.938C316.174 419.708 316.731 420.791 317.127 421.606C319.898 427.357 326.334 429.991 331.511 427.497C336.647 425.023 338.61 418.434 335.935 412.713C335.537 411.889 334.99 410.692 334.579 409.912C332.857 406.654 330.906 404.467 328.999 401.62C325.059 395.458 321.792 390.339 319.773 385.102C318.928 382.401 319.915 380.722 320.573 378.966C320.179 378.515 319.336 375.964 318.839 374.765C347.62 357.771 368.849 330.643 378.818 299.313C380.165 299.524 382.504 299.938 383.265 300.091C384.829 299.059 386.268 297.712 389.089 297.934C394.644 298.738 400.345 300.801 407.23 303.27C410.43 304.495 413.007 305.918 416.567 306.871C417.319 307.073 418.397 307.26 419.257 307.449C419.326 307.466 419.387 307.5 419.457 307.516C419.503 307.526 419.568 307.528 419.612 307.538C425.782 308.866 431.773 305.49 433.04 299.935C434.307 294.381 430.369 288.743 424.236 287.263C423.344 287.06 422.079 286.716 421.213 286.552C417.593 285.866 414.646 286.035 411.231 285.752C403.958 284.989 397.933 284.37 392.579 282.684C390.397 281.837 388.844 279.24 388.089 278.171L383.887 276.948C386.065 261.188 385.478 244.785 381.708 228.373C377.904 211.809 371.179 196.659 362.212 183.311C363.289 182.331 365.325 180.529 365.902 179.998C366.071 178.132 365.926 176.174 367.858 174.107C371.95 170.265 377.109 167.079 383.331 163.236C386.285 161.499 389.015 160.379 391.979 158.19C392.649 157.695 393.565 156.911 394.269 156.345C399.26 152.363 400.409 145.497 396.825 141.005C393.242 136.513 386.299 136.09 381.308 140.071C380.598 140.634 379.634 141.368 378.996 141.917C376.203 144.32 374.478 146.693 372.127 149.186C366.996 154.398 362.755 158.746 358.099 161.88C356.081 163.055 353.126 162.648 351.785 162.569L347.828 165.393C325.264 141.731 294.541 126.604 261.461 123.665C261.368 122.279 261.247 119.773 261.216 119.019C259.862 117.723 258.226 116.616 257.815 113.817C257.362 108.222 258.118 102.203 258.993 94.9424C259.476 91.5499 260.279 88.7318 260.416 85.0496C260.447 84.2125 260.397 82.9979 260.394 82.0929C260.393 75.7088 255.735 70.5321 249.989 70.5327ZM236.962 151.231L233.872 205.809L233.65 205.92C233.442 210.802 229.424 214.701 224.49 214.701C222.469 214.701 220.604 214.052 219.088 212.945L218.999 212.989L174.248 181.266C188.002 167.741 205.594 157.747 225.869 153.143C229.572 152.302 233.274 151.678 236.962 151.231ZM263.039 151.231C286.71 154.143 308.6 164.861 325.375 181.288L280.913 212.811L280.757 212.745C276.811 215.627 271.251 214.912 268.174 211.055C266.914 209.475 266.253 207.617 266.174 205.742L266.129 205.72L263.039 151.231ZM158.02 201.651L198.88 238.199L198.836 238.422C202.524 241.628 203.068 247.192 199.992 251.049C198.732 252.629 197.045 253.689 195.234 254.183L195.19 254.361L142.814 269.478C140.148 245.102 145.893 221.407 158.02 201.651ZM341.67 201.674C347.741 211.514 352.339 222.505 355.076 234.42C357.78 246.192 358.458 257.944 357.343 269.301L304.7 254.139L304.656 253.917C299.942 252.628 297.044 247.833 298.142 243.023C298.592 241.053 299.637 239.386 301.054 238.155L301.032 238.044L341.67 201.674ZM241.608 241.023H258.348L268.752 254.028L265.018 270.256L249.989 277.482L234.917 270.234L231.182 254.006L241.608 241.023ZM295.274 285.529C295.985 285.493 296.694 285.557 297.386 285.685L297.475 285.574L351.652 294.733C343.723 317.009 328.551 336.307 308.279 349.221L287.249 298.423L287.315 298.334C285.383 293.845 287.317 288.581 291.762 286.441C292.9 285.893 294.088 285.589 295.274 285.529ZM204.282 285.751C208.417 285.809 212.125 288.679 213.086 292.888C213.536 294.858 213.317 296.81 212.575 298.534L212.73 298.734L191.922 349.021C172.467 336.537 156.972 317.845 148.683 294.911L202.393 285.796L202.482 285.907C203.082 285.797 203.692 285.743 204.282 285.751ZM249.656 307.783C251.096 307.73 252.558 308.025 253.947 308.694C255.767 309.571 257.174 310.951 258.059 312.607H258.259L284.737 360.448C281.3 361.6 277.768 362.584 274.155 363.405C253.905 368.002 233.72 366.609 215.442 360.381L241.853 312.629H241.897C243.482 309.666 246.488 307.899 249.656 307.783Z" fill="white" stroke="white" stroke-width="0.25"/>
</svg>
