<svg width="500" height="500" viewBox="0 0 500 500" fill="none" xmlns="http://www.w3.org/2000/svg">
<g clip-path="url(#clip0_1183_16276)">
<path fill-rule="evenodd" clip-rule="evenodd" d="M486.795 111.191C486.972 111.846 487.062 112.522 487.064 113.201V218.701C487.064 220.055 486.707 221.385 486.028 222.557C485.349 223.728 484.373 224.7 483.198 225.374L394.65 276.354V377.403C394.65 380.153 393.189 382.691 390.804 384.076L205.968 490.479C205.545 490.72 205.083 490.874 204.622 491.037C204.449 491.095 204.285 491.201 204.102 491.249C202.81 491.589 201.452 491.589 200.16 491.249C199.948 491.191 199.756 491.076 199.554 490.999C199.131 490.845 198.689 490.71 198.285 490.479L13.487 384.076C12.313 383.401 11.3376 382.429 10.6589 381.258C9.98032 380.086 9.62251 378.756 9.62158 377.403L9.62158 60.9026C9.62158 60.2103 9.71774 59.5372 9.89081 58.8834C9.94851 58.6622 10.0831 58.4603 10.16 58.2391C10.3043 57.8353 10.4389 57.4218 10.6504 57.0468C10.7947 56.7968 11.0062 56.5949 11.1793 56.3641C11.4004 56.0565 11.6024 55.7391 11.862 55.4699C12.0831 55.2488 12.3716 55.0853 12.6216 54.893C12.9004 54.6622 13.1504 54.4122 13.4677 54.2295L105.881 1.02761C107.051 0.354344 108.377 0 109.727 0C111.077 0 112.403 0.354344 113.573 1.02761L205.977 54.2295H205.997C206.304 54.4218 206.564 54.6622 206.843 54.8834C207.093 55.0757 207.372 55.2488 207.593 55.4603C207.862 55.7391 208.054 56.0565 208.285 56.3641C208.448 56.5949 208.67 56.7968 208.804 57.0468C209.025 57.4315 209.15 57.8353 209.304 58.2391C209.381 58.4603 209.516 58.6622 209.573 58.893C209.751 59.5482 209.841 60.2239 209.843 60.9026V258.585L286.843 214.249V113.191C286.843 112.518 286.939 111.835 287.112 111.191C287.179 110.96 287.304 110.758 287.381 110.537C287.535 110.133 287.67 109.72 287.881 109.345C288.025 109.095 288.237 108.893 288.4 108.662C288.631 108.355 288.823 108.037 289.093 107.768C289.314 107.547 289.593 107.383 289.843 107.191C290.131 106.96 290.381 106.71 290.689 106.528L383.112 53.3257C384.282 52.6515 385.608 52.2966 386.958 52.2966C388.308 52.2966 389.635 52.6515 390.804 53.3257L483.208 106.528C483.535 106.72 483.785 106.96 484.073 107.181C484.314 107.374 484.593 107.547 484.814 107.758C485.083 108.037 485.275 108.355 485.506 108.662C485.679 108.893 485.891 109.095 486.025 109.345C486.247 109.72 486.372 110.133 486.525 110.537C486.612 110.758 486.737 110.96 486.795 111.191ZM471.66 214.249V126.518L439.323 145.133L394.65 170.855V258.585L471.67 214.249H471.66ZM379.256 372.951V285.162L335.314 310.258L209.833 381.874V470.489L379.256 372.951ZM25.0254 74.2199V372.951L194.429 470.479V381.883L105.929 331.797L105.9 331.778L105.862 331.758C105.564 331.585 105.314 331.335 105.035 331.124C104.795 330.931 104.516 330.778 104.304 330.566L104.285 330.537C104.035 330.297 103.862 329.999 103.65 329.73C103.458 329.47 103.227 329.249 103.073 328.98L103.064 328.951C102.891 328.662 102.785 328.316 102.66 327.989C102.535 327.701 102.372 327.431 102.295 327.124C102.198 326.758 102.179 326.364 102.141 325.989C102.102 325.701 102.025 325.412 102.025 325.124V325.105V118.556L57.362 92.8257L25.0254 74.2199ZM109.737 16.5853L32.7466 60.9026L109.718 105.22L186.698 60.893L109.718 16.5853H109.737ZM149.775 293.162L194.439 267.451V74.2199L162.102 92.8353L117.429 118.556V311.787L149.775 293.162ZM386.958 68.8834L309.977 113.201L386.958 157.518L463.929 113.191L386.958 68.8834ZM379.256 170.855L334.583 145.133L302.247 126.518V214.249L346.91 239.96L379.256 258.585V170.855ZM202.122 368.556L315.035 304.095L371.477 271.883L294.554 227.595L205.987 278.585L125.266 325.056L202.122 368.556Z" fill="#FF2D20"/>
</g>
<defs>
<clipPath id="clip0_1183_16276">
<rect width="480.769" height="500" fill="white" transform="translate(9.62158)"/>
</clipPath>
</defs>
</svg>
