<svg width="500" height="500" viewBox="0 0 500 500" fill="none" xmlns="http://www.w3.org/2000/svg">
<g clip-path="url(#clip0_162_523)">
<path d="M248.989 0.168007C241.063 0.171465 233.287 2.32937 226.493 6.41093C219.699 10.4925 214.142 16.3441 210.417 23.34C206.692 30.3359 204.938 38.2128 205.344 46.1282C205.75 54.0437 208.3 61.6999 212.721 68.278L231.395 49.6307C230.778 47.7706 230.467 45.8226 230.473 43.8627C230.473 40.2163 231.555 36.6518 233.58 33.6199C235.606 30.588 238.486 28.225 241.854 26.8295C245.223 25.4341 248.93 25.069 252.507 25.7804C256.083 26.4918 259.368 28.2477 261.946 30.8261C264.525 33.4045 266.281 36.6896 266.992 40.2659C267.704 43.8423 267.338 47.5492 265.943 50.9181C264.548 54.2869 262.185 57.1663 259.153 59.1922C256.121 61.218 252.556 62.2993 248.91 62.2993C246.959 62.3036 245.02 61.9923 243.168 61.3775L224.521 80.0248C230.18 83.8631 236.661 86.3196 243.443 87.1965C250.225 88.0735 257.118 87.3466 263.567 85.0741C270.017 82.8017 275.843 79.0472 280.577 74.1127C285.311 69.1782 288.821 63.2015 290.825 56.6633C292.828 50.1251 293.269 43.208 292.112 36.4684C290.954 29.7288 288.231 23.3549 284.162 17.8594C280.092 12.3639 274.79 7.90031 268.681 4.82761C262.572 1.7549 255.827 0.158907 248.989 0.168007Z" fill="#34A853"/>
<path d="M231.609 127.512C231.638 112.752 226.858 98.3838 217.993 86.5825L193.762 110.787C197.446 117.527 198.794 125.297 197.593 132.884C196.392 140.47 192.711 147.445 187.125 152.717L200.294 184.902C209.896 178.718 217.794 170.224 223.265 160.198C228.736 150.172 231.605 138.933 231.609 127.512Z" fill="#FBBC04"/>
<path d="M163.892 162.252H163.26C157.842 162.252 152.499 160.987 147.657 158.555C142.815 156.124 138.609 152.595 135.373 148.25C132.137 143.905 129.961 138.863 129.02 133.527C128.078 128.192 128.397 122.71 129.95 117.52C131.503 112.329 134.248 107.573 137.965 103.632C141.682 99.6905 146.27 96.6724 151.36 94.8185C156.451 92.9645 161.905 92.326 167.286 92.9539C172.668 93.5818 177.828 95.4587 182.355 98.435L206.349 74.4411C197.857 67.5567 187.837 62.8105 177.131 60.6012C166.425 58.3919 155.345 58.7839 144.822 61.7444C134.298 64.7049 124.639 70.1473 116.655 77.6146C108.671 85.082 102.596 94.3561 98.9387 104.658C95.2819 114.96 94.1506 125.989 95.6399 136.819C97.1291 147.649 101.195 157.964 107.497 166.896C113.799 175.829 122.152 183.119 131.855 188.154C141.559 193.189 152.328 195.823 163.26 195.833C167.895 195.835 172.518 195.376 177.061 194.463L163.892 162.252Z" fill="#EA4335"/>
<path d="M249.912 190.091C234.747 190.075 219.662 192.285 205.138 196.649L224.338 243.557C232.696 241.486 241.275 240.442 249.886 240.449C274.082 240.456 297.527 248.852 316.227 264.207C334.926 279.561 347.724 300.924 352.439 324.656C357.154 348.388 353.495 373.021 342.085 394.357C330.675 415.694 312.22 432.415 289.864 441.67C267.509 450.926 242.636 452.144 219.483 445.118C196.33 438.091 176.329 423.254 162.888 403.135C149.448 383.016 143.399 358.859 145.772 334.779C148.145 310.7 158.793 288.189 175.903 271.08C183.265 263.741 191.669 257.529 200.845 252.643L181.855 205.867C147.663 222.613 120.827 251.353 106.461 286.611C92.0957 321.869 91.2044 361.18 103.957 397.053C116.71 432.926 142.216 462.853 175.614 481.131C209.012 499.409 247.968 504.76 285.057 496.165C322.147 487.569 354.777 465.628 376.731 434.522C398.684 403.417 408.426 365.321 404.099 327.496C399.772 289.67 381.68 254.758 353.269 229.413C324.859 204.069 288.117 190.063 250.044 190.064L249.912 190.091Z" fill="#4285F4"/>
</g>
<defs>
<clipPath id="clip0_162_523">
<rect width="500" height="500" fill="white"/>
</clipPath>
</defs>
</svg>
