<svg width="500" height="500" viewBox="0 0 500 500" fill="none" xmlns="http://www.w3.org/2000/svg">
<g clip-path="url(#clip0_162_494)">
<mask id="mask0_162_494" style="mask-type:alpha" maskUnits="userSpaceOnUse" x="0" y="0" width="500" height="500">
<path d="M250 500C388.071 500 500 388.071 500 250C500 111.929 388.071 0 250 0C111.929 0 0 111.929 0 250C0 388.071 111.929 500 250 500Z" fill="black"/>
</mask>
<g mask="url(#mask0_162_494)">
<path d="M250 500C388.071 500 500 388.071 500 250C500 111.929 388.071 0 250 0C111.929 0 0 111.929 0 250C0 388.071 111.929 500 250 500Z" fill="black"/>
<path d="M415.3 437.556L192.061 150H150V349.917H183.649V192.732L388.886 457.903C398.147 451.706 406.969 444.903 415.3 437.556Z" fill="url(#paint0_linear_162_494)"/>
<path d="M352.778 150H319.444V350H352.778V150Z" fill="url(#paint1_linear_162_494)"/>
</g>
</g>
<defs>
<linearGradient id="paint0_linear_162_494" x1="302.778" y1="323.611" x2="401.389" y2="445.833" gradientUnits="userSpaceOnUse">
<stop stop-color="white"/>
<stop offset="1" stop-color="white" stop-opacity="0"/>
</linearGradient>
<linearGradient id="paint1_linear_162_494" x1="336.111" y1="150" x2="335.553" y2="296.875" gradientUnits="userSpaceOnUse">
<stop stop-color="white"/>
<stop offset="1" stop-color="white" stop-opacity="0"/>
</linearGradient>
<clipPath id="clip0_162_494">
<rect width="500" height="500" fill="white"/>
</clipPath>
</defs>
</svg>
