<svg width="500" height="500" viewBox="0 0 500 500" fill="none" xmlns="http://www.w3.org/2000/svg">
<g clip-path="url(#clip0_162_485)">
<mask id="mask0_162_485" style="mask-type:luminance" maskUnits="userSpaceOnUse" x="7" y="122" width="487" height="257">
<path d="M7.12366 250.365C7.12366 320.952 115.907 378.176 250.093 378.176C384.279 378.176 493.063 320.952 493.063 250.365C493.063 179.778 384.279 122.554 250.093 122.554C115.907 122.554 7.12366 179.778 7.12366 250.365Z" fill="white"/>
</mask>
<g mask="url(#mask0_162_485)">
<path d="M7.12366 250.365C7.12366 320.952 115.907 378.176 250.093 378.176C384.279 378.176 493.063 320.952 493.063 250.365C493.063 179.778 384.279 122.554 250.093 122.554C115.907 122.554 7.12366 179.778 7.12366 250.365Z" fill="url(#paint0_radial_162_485)"/>
</g>
<mask id="mask1_162_485" style="mask-type:luminance" maskUnits="userSpaceOnUse" x="-3" y="108" width="507" height="285">
<path d="M-3 108H503.186V392.729H-3V108Z" fill="white"/>
</mask>
<g mask="url(#mask1_162_485)">
<path d="M250.093 368.686C379.038 368.686 483.571 315.711 483.571 250.364C483.571 185.018 379.038 132.042 250.093 132.042C121.148 132.042 16.6147 185.018 16.6147 250.364C16.6147 315.711 121.148 368.686 250.093 368.686Z" fill="#777BB3"/>
</g>
<mask id="mask2_162_485" style="mask-type:luminance" maskUnits="userSpaceOnUse" x="-3" y="108" width="507" height="285">
<path d="M-3 108H503.186V392.729H-3V108Z" fill="white"/>
</mask>
<g mask="url(#mask2_162_485)">
<path d="M139.131 265.035C149.734 265.035 157.649 263.08 162.658 259.225C167.612 255.41 171.034 248.801 172.828 239.581C174.5 230.964 173.863 224.947 170.935 221.7C167.941 218.383 161.468 216.701 151.696 216.701H134.751L125.358 265.035H139.131ZM83.712 324.573C82.9254 324.573 82.1785 324.222 81.6784 323.614C81.1775 323.006 80.9745 322.207 81.1248 321.434L106.019 193.349C106.26 192.111 107.345 191.216 108.607 191.216H162.261C179.124 191.216 191.675 195.795 199.563 204.826C207.495 213.905 209.944 226.596 206.843 242.545C205.581 249.043 203.41 255.077 200.391 260.48C197.369 265.889 193.375 270.894 188.518 275.358C182.704 280.8 176.123 284.745 168.977 287.067C161.944 289.358 152.912 290.52 142.132 290.52H120.406L114.202 322.44C113.961 323.679 112.877 324.573 111.615 324.573H83.712Z" fill="black"/>
<path d="M136.925 219.337H151.696C163.49 219.337 167.587 221.925 168.979 223.467C171.288 226.028 171.724 231.427 170.24 239.081C168.572 247.649 165.48 253.724 161.05 257.136C156.513 260.628 149.138 262.398 139.132 262.398H128.556L136.925 219.337ZM162.261 188.579H108.607C106.083 188.579 103.913 190.368 103.431 192.846L78.5369 320.931C78.2364 322.477 78.6424 324.075 79.6433 325.291C80.6452 326.506 82.1374 327.209 83.7122 327.209H111.614C114.139 327.209 116.308 325.42 116.79 322.942L122.579 293.156H142.132C153.189 293.156 162.497 291.95 169.795 289.573C177.301 287.134 184.207 282.999 190.319 277.284C195.374 272.633 199.537 267.413 202.692 261.767C205.848 256.119 208.115 249.821 209.431 243.047C212.695 226.258 210.043 212.814 201.549 203.092C193.137 193.462 179.918 188.579 162.261 188.579ZM122.159 267.671H139.132C150.381 267.671 158.76 265.552 164.266 261.313C169.773 257.074 173.486 249.999 175.416 240.084C177.262 230.565 176.421 223.848 172.893 219.934C169.36 216.021 162.296 214.064 151.696 214.064H132.578L122.159 267.671ZM162.261 193.852C178.402 193.852 190.177 198.088 197.578 206.56C204.979 215.033 207.207 226.859 204.255 242.041C203.039 248.296 200.984 254.014 198.09 259.195C195.193 264.379 191.409 269.119 186.734 273.417C181.163 278.631 174.973 282.347 168.163 284.559C161.352 286.778 152.677 287.883 142.132 287.883H118.232L111.614 321.936H83.7122L108.607 193.852H162.261Z" fill="white"/>
<path d="M270.818 290.52C270.03 290.52 269.284 290.168 268.784 289.56C268.282 288.953 268.079 288.154 268.23 287.38L279.242 230.708C280.289 225.318 280.031 221.45 278.515 219.815C277.587 218.816 274.799 217.14 266.557 217.14H246.607L232.761 288.386C232.521 289.625 231.435 290.52 230.173 290.52H202.491C201.704 290.52 200.958 290.168 200.457 289.56C199.956 288.953 199.753 288.153 199.903 287.38L224.798 159.295C225.039 158.057 226.124 157.162 227.386 157.162H255.068C255.855 157.162 256.601 157.514 257.102 158.121C257.603 158.729 257.806 159.528 257.656 160.301L251.648 191.216H273.11C289.46 191.216 300.547 194.098 307.005 200.028C313.587 206.078 315.641 215.751 313.11 228.782L301.527 288.386C301.286 289.625 300.202 290.52 298.939 290.52H270.818Z" fill="black"/>
<path d="M255.068 154.526H227.386C224.861 154.526 222.691 156.315 222.21 158.792L197.315 286.878C197.015 288.423 197.421 290.022 198.423 291.237C199.424 292.453 200.917 293.156 202.491 293.156H230.173C232.697 293.156 234.868 291.367 235.349 288.889L248.78 219.776H266.557C274.785 219.776 276.512 221.534 276.582 221.61C277.081 222.146 277.737 224.633 276.654 230.205L265.642 286.878C265.341 288.423 265.747 290.022 266.749 291.237C267.751 292.453 269.243 293.156 270.818 293.156H298.939C301.463 293.156 303.634 291.367 304.115 288.889L315.697 229.285C318.415 215.294 316.09 204.798 308.789 198.088C301.822 191.689 290.151 188.579 273.11 188.579H254.846L260.244 160.805C260.544 159.259 260.139 157.66 259.137 156.445C258.135 155.23 256.643 154.526 255.068 154.526ZM255.068 159.799L248.45 193.852H273.11C288.627 193.852 299.33 196.56 305.221 201.97C311.111 207.384 312.876 216.155 310.522 228.28L298.939 287.883H270.818L281.83 231.211C283.083 224.764 282.622 220.367 280.447 218.022C278.27 215.678 273.639 214.504 266.557 214.504H244.433L230.173 287.883H202.491L227.386 159.799H255.068Z" fill="white"/>
<path d="M356.91 265.035C367.513 265.035 375.428 263.08 380.437 259.225C385.391 255.411 388.813 248.802 390.608 239.581C392.28 230.964 391.643 224.947 388.714 221.7C385.72 218.383 379.247 216.701 369.474 216.701H352.53L343.137 265.035H356.91ZM301.492 324.573C300.705 324.573 299.958 324.222 299.458 323.614C298.957 323.006 298.753 322.207 298.904 321.434L323.798 193.349C324.04 192.111 325.124 191.216 326.387 191.216H380.04C396.903 191.216 409.453 195.795 417.343 204.826C425.274 213.904 427.723 226.595 424.622 242.545C423.359 249.043 421.189 255.077 418.17 260.48C415.148 265.889 411.154 270.894 406.297 275.358C400.483 280.8 393.902 284.745 386.756 287.067C379.723 289.358 370.691 290.52 359.911 290.52H338.184L331.982 322.44C331.741 323.679 330.656 324.573 329.394 324.573H301.492Z" fill="black"/>
<path d="M354.704 219.337H369.475C381.269 219.337 385.366 221.925 386.758 223.467C389.068 226.028 389.504 231.427 388.019 239.08C386.351 247.649 383.259 253.724 378.829 257.136C374.292 260.628 366.917 262.398 356.91 262.398H346.336L354.704 219.337ZM380.04 188.579H326.386C323.863 188.579 321.693 190.368 321.211 192.846L296.317 320.931C296.016 322.477 296.422 324.075 297.423 325.291C298.425 326.506 299.917 327.209 301.492 327.209H329.394C331.918 327.209 334.088 325.42 334.57 322.942L340.358 293.156H359.911C370.968 293.156 380.276 291.95 387.574 289.573C395.08 287.134 401.987 282.999 408.099 277.282C413.154 272.632 417.316 267.413 420.471 261.767C423.627 256.119 425.894 249.821 427.21 243.047C430.474 226.257 427.822 212.814 419.328 203.091C410.916 193.462 397.698 188.579 380.04 188.579ZM339.939 267.671H356.91C368.16 267.671 376.539 265.552 382.045 261.313C387.552 257.074 391.265 249.999 393.195 240.084C395.042 230.565 394.201 223.848 390.672 219.934C387.139 216.021 380.075 214.064 369.475 214.064H350.357L339.939 267.671ZM380.04 193.852C396.181 193.852 407.956 198.088 415.357 206.56C422.759 215.033 424.986 226.859 422.034 242.041C420.818 248.296 418.763 254.014 415.869 259.195C412.971 264.379 409.188 269.119 404.513 273.417C398.941 278.631 392.752 282.347 385.941 284.559C379.131 286.778 370.456 287.883 359.911 287.883H336.011L329.394 321.936H301.492L326.386 193.852H380.04Z" fill="white"/>
</g>
</g>
<defs>
<radialGradient id="paint0_radial_162_485" cx="0" cy="0" r="1" gradientUnits="userSpaceOnUse" gradientTransform="translate(153.004 167.488) scale(319.053 319.053)">
<stop stop-color="#AEB2D5"/>
<stop offset="0.3" stop-color="#AEB2D5"/>
<stop offset="0.75" stop-color="#484C89"/>
<stop offset="1" stop-color="#484C89"/>
</radialGradient>
<clipPath id="clip0_162_485">
<rect width="500" height="500" fill="white"/>
</clipPath>
</defs>
</svg>
