<svg width="500" height="500" viewBox="0 0 500 500" fill="none" xmlns="http://www.w3.org/2000/svg">
<g clip-path="url(#clip0_163_545)">
<path d="M250 297.925C276.299 297.925 297.619 276.653 297.619 250.413C297.619 224.172 276.299 202.9 250 202.9C223.701 202.9 202.381 224.172 202.381 250.413C202.381 276.653 223.701 297.925 250 297.925Z" fill="#149ECA"/>
<path fill-rule="evenodd" clip-rule="evenodd" d="M86.5265 185.653C44.185 204.664 23.8095 228.478 23.8095 250.413C23.8095 272.348 44.185 296.162 86.5265 315.173C127.751 333.682 185.537 345.438 250 345.438C314.463 345.438 372.249 333.682 413.473 315.173C455.815 296.162 476.19 272.348 476.19 250.413C476.19 228.478 455.815 204.664 413.473 185.653C372.249 167.143 314.463 155.388 250 155.388C185.537 155.388 127.751 167.143 86.5265 185.653ZM76.756 163.989C121.705 143.807 182.967 131.631 250 131.631C317.033 131.631 378.295 143.807 423.244 163.989C467.076 183.669 500 213.307 500 250.413C500 287.519 467.076 317.156 423.244 336.837C378.295 357.019 317.033 369.194 250 369.194C182.967 369.194 121.705 357.019 76.756 336.837C32.924 317.156 0 287.519 0 250.413C0 213.307 32.924 183.669 76.756 163.989Z" fill="#149ECA"/>
<path fill-rule="evenodd" clip-rule="evenodd" d="M224.473 76.7772C186.801 49.6959 155.944 43.9967 136.905 54.9642C117.866 65.9316 107.384 95.4448 112.054 141.537C116.6 186.413 135.29 242.223 167.521 297.925C199.753 353.627 238.85 397.682 275.527 424.048C313.199 451.129 344.056 456.829 363.095 445.861C382.134 434.894 392.616 405.38 387.946 359.288C383.4 314.412 364.71 258.602 332.479 202.9C300.247 147.198 261.15 103.144 224.473 76.7772ZM238.391 57.5026C278.383 86.2519 319.582 133.1 353.098 191.022C386.615 248.944 406.678 307.968 411.635 356.899C416.469 404.614 407.207 447.882 375 466.435C342.793 484.988 300.607 471.357 261.609 443.323C221.617 414.573 180.418 367.726 146.902 309.803C113.385 251.881 93.3223 192.858 88.3649 143.926C83.5307 96.2117 92.7931 52.9437 125 34.3906C157.207 15.8376 199.393 29.468 238.391 57.5026Z" fill="#149ECA"/>
<path fill-rule="evenodd" clip-rule="evenodd" d="M387.946 141.537C392.616 95.4448 382.134 65.9316 363.095 54.9641C344.056 43.9967 313.199 49.6958 275.527 76.7771C238.85 103.144 199.753 147.198 167.521 202.9C135.29 258.602 116.6 314.412 112.054 359.288C107.384 405.38 117.866 434.894 136.905 445.861C155.944 456.829 186.801 451.129 224.473 424.048C261.15 397.681 300.247 353.627 332.479 297.925C364.71 242.223 383.4 186.413 387.946 141.537ZM411.635 143.926C406.678 192.858 386.615 251.881 353.098 309.803C319.582 367.726 278.383 414.573 238.391 443.323C199.393 471.357 157.207 484.988 125 466.435C92.7932 447.882 83.5307 404.614 88.3649 356.899C93.3223 307.967 113.385 248.944 146.902 191.022C180.418 133.1 221.617 86.2518 261.609 57.5026C300.607 29.468 342.793 15.8376 375 34.3906C407.207 52.9436 416.469 96.2116 411.635 143.926Z" fill="#149ECA"/>
</g>
<defs>
<clipPath id="clip0_163_545">
<rect width="500" height="500" fill="white"/>
</clipPath>
</defs>
</svg>
