<svg width="500" height="500" viewBox="0 0 500 500" fill="none" xmlns="http://www.w3.org/2000/svg">
<g clip-path="url(#clip0_163_609)">
<path fill-rule="evenodd" clip-rule="evenodd" d="M250.001 -0.00125122C388.073 -0.00125122 500.001 111.928 500.001 250C500.001 388.071 388.073 500 250.001 500C111.93 500 0 388.071 0 250C0 111.928 111.93 -0.00125122 250.001 -0.00125122Z" fill="#CC499C"/>
<path d="M200.318 333.276C203.955 346.73 203.556 359.277 199.799 370.639C199.382 371.901 198.922 373.15 198.423 374.384C197.924 375.615 197.384 376.833 196.804 378.036C193.907 384.047 190.019 389.674 185.257 394.868C170.732 410.715 150.437 416.707 141.735 411.658C132.337 406.211 137.045 383.868 153.886 366.067C172.003 346.914 198.071 334.6 198.071 334.6L198.031 334.522C198.782 334.118 199.545 333.702 200.318 333.276ZM406.818 107.002C395.497 62.6013 321.875 48.0054 252.196 72.7602C210.73 87.4911 165.838 110.613 133.56 140.805C95.1824 176.702 89.0621 207.945 91.5849 221.001C100.483 267.066 163.602 297.177 189.549 319.517V319.652C181.898 323.419 125.899 351.758 112.794 380.731C98.9658 411.297 114.995 433.23 125.607 436.183C158.487 445.331 192.227 428.877 210.36 401.83C227.858 375.73 226.401 342.025 218.797 325.26C229.287 322.492 241.516 321.252 257.057 323.068C300.911 328.19 309.516 355.573 307.871 367.031C306.227 378.492 297.028 384.793 293.953 386.695C290.877 388.599 289.938 389.257 290.198 390.671C290.57 392.728 291.994 392.651 294.616 392.207C298.226 391.598 317.644 382.885 318.474 361.731C319.532 334.874 293.794 304.83 248.221 305.615C229.452 305.939 217.65 307.724 209.126 310.896C208.495 310.178 207.854 309.464 207.191 308.757C179.016 278.698 126.933 257.434 129.142 217.024C129.945 202.333 135.051 163.648 229.221 116.723C306.362 78.2851 368.116 88.8626 378.789 112.306C394.033 145.797 345.784 208.045 265.673 217.024C235.151 220.446 219.08 208.616 215.083 204.211C210.873 199.573 210.246 199.363 208.675 200.234C206.115 201.651 207.737 205.746 208.675 208.187C211.067 214.412 220.882 225.451 237.616 230.942C252.336 235.773 288.173 238.427 331.511 221.664C380.048 202.888 417.951 150.66 406.818 107.002Z" fill="white"/>
</g>
<defs>
<clipPath id="clip0_163_609">
<rect width="500" height="500" fill="white"/>
</clipPath>
</defs>
</svg>
