<svg width="500" height="500" viewBox="0 0 500 500" fill="none" xmlns="http://www.w3.org/2000/svg">
<path d="M108.871 38.8669L249.496 24L390.121 38.8669L498.992 185.017L249.496 475.552L0 185.017L108.871 38.8669Z" fill="#FDB300"/>
<path d="M101.058 185.017L249.496 475.552L0 185.017H101.058Z" fill="#EA6C00"/>
<path d="M397.933 185.017L249.495 475.552L498.992 185.017H397.933Z" fill="#EA6C00"/>
<path d="M101.058 185.017H397.934L249.496 475.552L101.058 185.017Z" fill="#FDAD00"/>
<path d="M249.496 24L108.871 38.8668L101.058 185.016L249.496 24Z" fill="#FDD231"/>
<path d="M249.495 24L390.121 38.8668L397.933 185.016L249.495 24Z" fill="#FDD231"/>
<path d="M498.992 185.016L390.12 38.8667L397.934 185.016H498.992Z" fill="#FDAD00"/>
<path d="M0 185.016L108.871 38.8667L101.058 185.016H0Z" fill="#FDAD00"/>
<path d="M249.496 24L101.058 185.016H397.934L249.496 24Z" fill="#FEEEB7"/>
</svg>
