<svg width="500" height="500" viewBox="0 0 500 500" fill="none" xmlns="http://www.w3.org/2000/svg">
<g clip-path="url(#clip0_1183_16354)">
<path d="M35.5422 249.994C35.5422 334.884 84.8758 408.246 156.413 443.011L54.1102 162.712C42.2104 189.385 35.5422 218.902 35.5422 249.994Z" fill="#464342"/>
<path d="M394.789 239.171C394.789 212.666 385.268 194.31 377.103 180.023C366.231 162.357 356.041 147.397 356.041 129.731C356.041 110.016 370.994 91.6644 392.055 91.6644C393.006 91.6644 393.908 91.7827 394.834 91.8358C356.678 56.8791 305.843 35.5361 250.008 35.5361C175.083 35.5361 109.165 73.9779 70.8173 132.204C75.849 132.355 80.5909 132.461 84.6188 132.461C107.051 132.461 141.775 129.739 141.775 129.739C153.336 129.057 154.699 146.038 143.151 147.405C143.151 147.405 131.532 148.772 118.604 149.449L196.704 381.753L243.638 240.991L210.224 149.441C198.675 148.764 187.734 147.397 187.734 147.397C176.177 146.719 177.532 129.049 189.089 129.731C189.089 129.731 224.507 132.453 245.58 132.453C268.009 132.453 302.737 129.731 302.737 129.731C314.306 129.049 315.665 146.03 304.112 147.397C304.112 147.397 292.47 148.764 279.566 149.441L357.07 379.986L378.462 308.501C387.733 278.837 394.789 257.531 394.789 239.171Z" fill="#464342"/>
<path d="M253.771 268.753L189.424 455.735C208.636 461.383 228.955 464.472 250.008 464.472C274.983 464.472 298.934 460.154 321.227 452.315C320.652 451.397 320.13 450.421 319.701 449.36L253.771 268.753Z" fill="#464342"/>
<path d="M438.193 147.099C439.115 153.93 439.638 161.264 439.638 169.152C439.638 190.915 435.573 215.38 423.331 245.97L357.821 435.376C421.58 398.195 464.466 329.118 464.466 249.998C464.47 212.711 454.945 177.648 438.193 147.099Z" fill="#464342"/>
<path d="M250.008 0C112.161 0 0.00610352 112.146 0.00610352 249.994C0.00610352 387.858 112.161 500 250.008 500C387.852 500 500.022 387.858 500.022 249.994C500.018 112.146 387.852 0 250.008 0ZM250.008 488.541C118.482 488.541 11.4693 381.528 11.4693 249.994C11.4693 118.468 118.478 11.4632 250.008 11.4632C381.53 11.4632 488.535 118.468 488.535 249.994C488.535 381.528 381.53 488.541 250.008 488.541Z" fill="#464342"/>
</g>
<defs>
<clipPath id="clip0_1183_16354">
<rect width="499.988" height="500" fill="white" transform="translate(0.00610352)"/>
</clipPath>
</defs>
</svg>
