<svg width="60" height="60" viewBox="0 0 60 60" fill="none" xmlns="http://www.w3.org/2000/svg">
<path d="M12.5 52.5H47.5C48.8261 52.5 50.0979 51.9733 51.0355 51.0356C51.9732 50.0979 52.5 48.8261 52.5 47.5V20C52.5019 19.671 52.4388 19.3449 52.3144 19.0403C52.19 18.7357 52.0067 18.4586 51.775 18.225L41.775 8.22504C41.5414 7.99334 41.2644 7.81003 40.9598 7.68561C40.6552 7.5612 40.329 7.49814 40 7.50004H12.5C11.1739 7.50004 9.90215 8.02683 8.96447 8.96451C8.02678 9.90219 7.5 11.174 7.5 12.5V47.5C7.5 48.8261 8.02678 50.0979 8.96447 51.0356C9.90215 51.9733 11.1739 52.5 12.5 52.5ZM37.5 47.5H22.5V35H37.5V47.5ZM32.5 17.5H27.5V12.5H32.5V17.5ZM12.5 12.5H17.5V22.5H37.5V12.5H38.975L47.5 21.025V47.5H42.5V35C42.5 33.674 41.9732 32.4022 41.0355 31.4645C40.0979 30.5268 38.8261 30 37.5 30H22.5C21.1739 30 19.9021 30.5268 18.9645 31.4645C18.0268 32.4022 17.5 33.674 17.5 35V47.5H12.5V12.5Z" fill="#222222"/>
</svg>
