<svg width="60" height="60" viewBox="0 0 60 60" fill="none" xmlns="http://www.w3.org/2000/svg">
<path d="M20 22.5C15.93 22.5 12.5 25.93 12.5 30C12.5 34.07 15.93 37.5 20 37.5C24.07 37.5 27.5 34.07 27.5 30C27.5 25.93 24.07 22.5 20 22.5Z" fill="#222222"/>
<path d="M40 15H20C11.75 15 5.0275 21.7225 5 30V30.04C5.01717 34.0093 6.6043 37.8105 9.41477 40.6135C12.2252 43.4165 16.0307 44.9934 20 45H40C43.9736 44.9934 47.7828 43.413 50.594 40.6046C53.4052 37.7962 54.9894 33.9886 55 30.015V30C54.9775 21.7275 48.2525 15 40 15ZM40 40H20C17.3534 39.9961 14.8159 38.9447 12.9421 37.0755C11.0683 35.2064 10.0106 32.6716 10 30.025C10.01 24.4975 14.495 20 20 20H40C45.505 20 49.99 24.4975 50 30.015C49.9914 32.6631 48.9346 35.2001 47.0607 37.0713C45.1867 38.9424 42.6482 39.9954 40 40ZM50 30.04L51.1075 30.03L52.5 30.04H50Z" fill="#222222"/>
</svg>
